Coordinates
version=1
nRows=26
nColumns=20
inDegrees=yes

Units are S.I. units (second, meters, Newtons, ...)
Angles are in degrees.

endheader
time	pelvis_tilt	pelvis_list	pelvis_rotation	pelvis_tx	pelvis_ty	pelvis_tz	hip_flexion_r	hip_adduction_r	hip_rotation_r	knee_angle_r	ankle_angle_r	hip_flexion_l	hip_adduction_l	hip_rotation_l	knee_angle_l	ankle_angle_l	lumbar_extension	lumbar_bending	lumbar_rotation
      0.61700000	      3.85839256	      2.67788056	      1.01171458	      0.58555322	      1.00898016	     -0.01429135	     19.13328340	     -4.92170325	     -4.92834175	     -0.85762624	      1.68526308	    -21.23613408	      4.67354628	      2.87548133	     -3.57930414	     11.58201035	    -16.52853803	     -3.56948124	     -5.97875312
      0.63300000	      3.82167426	      2.63675290	      1.54689966	      0.58650341	      1.00743340	     -0.01189040	     19.84241248	     -4.84248883	     -5.28786582	     -3.59992019	      1.03823942	    -21.61293431	      4.16679604	      3.55583700	     -5.15814150	     12.06898576	    -16.50642325	     -3.22357309	     -6.27564625
      0.65000000	      3.69522990	      2.48456919	      2.03458948	      0.58799499	      1.00616154	     -0.00888615	     20.65643268	     -4.64757787	     -5.74591832	     -6.80601557	      0.03320850	    -21.78734212	      3.55207092	      4.20868106	     -6.94580363	     12.37948501	    -16.28918448	     -2.83051780	     -6.64465013
      0.66700000	      3.55824176	      2.42479019	      2.42243905	      0.58994683	      1.00558083	     -0.00637002	     21.35888963	     -4.59648356	     -6.03251872	     -9.99903282	     -1.06603270	    -21.73256969	      3.14852530	      4.83635835	     -9.16621717	     12.37906085	    -16.01198801	     -2.33530544	     -6.82402744
      0.68300000	      3.63586946	      2.37918545	      2.54723361	      0.59163169	      1.00575103	     -0.00354878	     21.97717022	     -4.50778946	     -5.98808231	    -13.56387598	     -1.66945137	    -21.54030229	      2.89052016	      5.22119464	    -12.03927695	     12.08631225	    -15.91606382	     -1.86540699	     -6.71624327
      0.70000000	      3.91375315	      2.10605030	      2.84711526	      0.59501480	      1.00702572	     -0.00114575	     22.02298593	     -4.26337452	     -6.08034258	    -16.83479889	     -1.71115266	    -21.28159555	      2.36724359	      5.59717304	    -15.49242628	     11.29991263	    -16.04230356	     -1.16951963	     -6.81703245
      0.71700000	      4.18982043	      1.84856907	      3.07211126	      0.59806746	      1.00880318	      0.00127269	     21.59140970	     -3.99532440	     -6.14124826	    -19.19631776	     -1.58094698	    -20.40934455	      1.93498441	      5.68291432	    -19.92714059	     10.02917875	    -16.03895994	     -0.37346958	     -6.94225453
      0.73300000	      4.29875541	      1.70158484	      3.23305930	      0.60030552	      1.01036586	      0.00434404	     21.23567244	     -3.78740518	     -6.19649287	    -21.31194585	     -1.12842936	    -18.40774612	      1.64878588	      5.36141657	    -25.88776211	      8.27459680	    -15.94572919	      0.10113135	     -6.79668314
      0.75000000	      4.39240925	      1.42404124	      3.30744622	      0.60295014	      1.01229571	      0.00745989	     20.44841723	     -3.39293331	     -6.40004817	    -22.65054641	     -0.44985290	    -15.98748049	      1.14563112	      4.41368640	    -32.17771450	      5.49041731	    -15.78787087	      0.66043934	     -6.99780718
      0.76700000	      4.31853170	      1.08003892	      3.41065695	      0.60487891	      1.01405900	      0.01042830	     19.67392136	     -2.90298695	     -6.61328724	    -23.63001134	      0.54257883	    -12.81564553	      0.35795842	      2.95125375	    -38.91008053	      1.86460666	    -15.54533527	      1.29160286	     -6.66599357
      0.78300000	      4.27701267	      0.49100288	      3.50027456	      0.60545567	      1.01585984	      0.01393123	     18.60420582	     -2.06279480	     -6.93216784	    -23.89145827	      1.44705852	     -9.41249856	     -0.96591973	      1.23290683	    -45.41091726	     -2.02472371	    -15.42052704	      2.04529918	     -6.33081401
      0.80000000	      4.28152655	     -0.26184895	      3.39451555	      0.60598779	      1.01761786	      0.01764131	     17.47458878	     -0.94633332	     -7.02308896	    -24.07209222	      2.52900890	     -6.08472942	     -2.68663069	     -0.70073446	    -51.34432213	     -5.42695626	    -15.29952253	      2.91066022	     -5.46834156
      0.81700000	      4.36388581	     -1.07682154	      3.45911541	      0.60623386	      1.02001133	      0.02146900	     15.88496778	      0.25484764	     -7.28917364	    -23.46112332	      3.36541362	     -3.07110366	     -4.53441262	     -2.03530376	    -56.33748505	     -7.40114530	    -15.13543825	      3.75848902	     -5.35435616
      0.83300000	      4.46538033	     -1.55168996	      3.46345353	      0.60602331	      1.02278255	      0.02488502	     14.28413969	      1.11102109	     -7.32794587	    -22.83349785	      4.18516342	     -0.26252079	     -5.86820226	     -2.97849323	    -60.51388683	     -7.78344701	    -15.15909626	      4.23852268	     -4.59102255
      0.85000000	      4.58244676	     -1.89724043	      3.30724019	      0.60564627	      1.02590281	      0.02817941	     12.47966281	      1.86913586	     -7.18789376	    -21.78325010	      4.78666528	      2.34078786	     -6.80904556	     -3.62825964	    -63.87648735	     -6.88247033	    -15.30759539	      4.44985077	     -3.91399162
      0.86700000	      4.76340811	     -1.93649325	      3.10485082	      0.60521644	      1.02925270	      0.03108734	     10.64091075	      2.27148500	     -6.91628972	    -20.84088783	      5.37077245	      4.67657779	     -7.18487137	     -4.06836425	    -66.34625395	     -5.38680792	    -15.41076207	      4.38951882	     -3.17663291
      0.88300000	      4.76742960	     -1.80598048	      2.94735390	      0.60417531	      1.03246396	      0.03367373	      8.82592165	      2.46175530	     -6.68943216	    -19.48959023	      5.75679061	      7.13855642	     -7.11730835	     -4.21556688	    -68.03990132	     -3.85705962	    -15.47259012	      4.10192345	     -2.76433942
      0.90000000	      4.94960592	     -1.58522877	      2.62277565	      0.60337334	      1.03565865	      0.03606479	      6.83303908	      2.55181483	     -6.24499597	    -18.19086851	      6.13631413	      9.18486134	     -6.73967186	     -4.30068432	    -68.88258234	     -2.52163352	    -15.73504973	      3.66633929	     -2.06587853
      0.91700000	      4.98608631	     -1.29512185	      2.40700728	      0.60202116	      1.03834009	      0.03794907	      5.01987437	      2.49753448	     -5.90480382	    -16.86279162	      6.42960144	     11.27767609	     -6.08744474	     -4.12822644	    -68.93496996	     -1.45060907	    -15.77197332	      3.21420502	     -1.75905911
      0.93300000	      5.01414047	     -0.99567872	      2.13363342	      0.60097730	      1.04083087	      0.03963127	      3.11387319	      2.40038024	     -5.58995476	    -15.33885068	      6.59379477	     13.12385901	     -5.28952234	     -3.84374870	    -68.11381179	     -0.63839011	    -15.85995875	      2.81249657	     -0.90162484
      0.95000000	      4.85193362	     -0.55472041	      1.36400964	      0.59849943	      1.04215259	      0.04170858	      1.91131048	      2.10226130	     -4.74063514	    -14.60637832	      7.05720620	     15.00308778	     -4.42570006	     -4.02907094	    -66.60697903	     -0.01027540	    -15.81089272	      2.08076955	     -0.04262410
      0.96700000	      4.72415855	     -0.34987706	      0.98292113	      0.59631254	      1.04307181	      0.04301233	      0.53366408	      2.00510921	     -4.32377677	    -13.60983566	      7.35108503	     16.71184614	     -3.81824700	     -3.92067343	    -64.44257879	      0.52303874	    -15.83102071	      1.73008911	      0.29829078
      0.98300000	      4.88913263	     -0.17363536	      0.56478931	      0.59557512	      1.04420841	      0.04438105	     -1.37942523	      1.93559943	     -3.97334523	    -12.34359650	      7.56456356	     17.66963149	     -3.37701213	     -4.00779392	    -61.41187147	      1.05752902	    -15.99003607	      1.37431386	      0.67980211
      1.00000000	      4.97153404	     -0.00489678	      0.31116931	      0.59301423	      1.04460742	      0.04546649	     -2.80550139	      1.85202196	     -3.71615033	    -11.67100139	      7.99272950	     18.65148630	     -3.04195523	     -4.16925039	    -57.78871220	      1.41829133	    -16.35854767	      1.04669334	      1.14521010
      1.01700000	      5.03001176	     -0.03733284	      0.05519273	      0.59111640	      1.04453629	      0.04656502	     -4.29403809	      1.97974504	     -3.50369176	    -10.89432536	      8.37655635	     19.33909482	     -3.07420764	     -4.59228555	    -53.53913695	      1.67547439	    -16.50452665	      0.92690652	      1.50102099
      1.03300000	      5.04482643	     -0.23746419	     -0.11947508	      0.58914770	      1.04401014	      0.04774241	     -5.81055029	      2.29590422	     -3.39558063	     -9.97400544	      8.68800855	     19.86294369	     -3.42953681	     -5.31890883	    -48.77648029	      1.62329565	    -16.63405202	      1.01398942	      1.82017439
